<svg xmlns="http://www.w3.org/2000/svg" xmlns:xlink="http://www.w3.org/1999/xlink" version="1.1" x="0px" y="0px" viewBox="0 0 100 125" enable-background="new 0 0 100 100" xml:space="preserve"><g><path fill="#000000" d="M39.458,15.289c-5.805,0-10.528,4.723-10.528,10.528c0,5.805,4.723,10.527,10.528,10.527   c5.805,0,10.527-4.723,10.527-10.527C49.985,20.011,45.263,15.289,39.458,15.289z"/><path fill="#000000" d="M39.458,43.081c-5.805,0-10.528,4.723-10.528,10.528c0,5.805,4.723,10.527,10.528,10.527   c5.805,0,10.527-4.723,10.527-10.527C49.985,47.803,45.262,43.081,39.458,43.081z"/><path fill="#000000" d="M66.35,30.229c2.603,0,4.721-2.118,4.721-4.722c0-2.603-2.118-4.72-4.721-4.72s-4.721,2.117-4.721,4.72   C61.629,28.111,63.747,30.229,66.35,30.229z"/><path fill="#000000" d="M66.35,47.83c-2.603,0-4.721,2.117-4.721,4.72c0,2.604,2.118,4.722,4.721,4.722s4.721-2.118,4.721-4.722   C71.07,49.947,68.953,47.83,66.35,47.83z"/><path fill="#000000" d="M66.35,74.212c-2.603,0-4.721,2.117-4.721,4.72c0,2.604,2.118,4.722,4.721,4.722s4.721-2.118,4.721-4.722   C71.07,76.33,68.953,74.212,66.35,74.212z"/><path fill="#000000" d="M39.458,75.27c-2.603,0-4.721,2.117-4.721,4.72c0,2.604,2.118,4.722,4.721,4.722s4.721-2.118,4.721-4.722   C44.178,77.387,42.061,75.27,39.458,75.27z"/></g><text x="0" y="115" fill="#000000" font-size="5px" font-weight="bold" font-family="'Helvetica Neue', Helvetica, Arial-Unicode, Arial, Sans-serif">Created by Duygu Ozkan</text><text x="0" y="120" fill="#000000" font-size="5px" font-weight="bold" font-family="'Helvetica Neue', Helvetica, Arial-Unicode, Arial, Sans-serif">from the Noun Project</text></svg>